<?xml version="1.0" encoding="utf-8"?>
<!-- Generator: Adobe Illustrator 26.0.1, SVG Export Plug-In . SVG Version: 6.00 Build 0)  -->
<svg version="1.1" id="Layer_1" xmlns="http://www.w3.org/2000/svg" xmlns:xlink="http://www.w3.org/1999/xlink" x="0px" y="0px"
	 viewBox="0 0 270.62 259.8" style="enable-background:new 0 0 270.62 259.8;" xml:space="preserve">
<style type="text/css">
	.st0{fill:#B07A4E;stroke:#B07A4E;stroke-miterlimit:10;}
	.st1{fill:#184A70;stroke:#184A70;stroke-miterlimit:10;}
</style>
<path class="st0" d="M105.08,74.24c0,0,47.61-23.59,86.45,10.29c0,0,28.17,27.73,19.34,67.77c0,0-5.71,37.4-45.57,64.34
	c0,0-23.47,16.43-67.13,15.68c0,0-17.5-0.84-37.12-6.04c0,0,32.56,34.33,94.43,25.04c0,0,44.1-5.6,74.31-36.95
	c0,0,29.23-32.46,31.48-63.61c0,0,7.11-30.6-9.25-61.29c0,0-16.21-28.65-35.16-37.03c0,0-24.09-13.42-46.88-10.27
	c0,0-23.84,1.12-44.47,15.25C125.51,57.43,105.37,70.01,105.08,74.24z"/>
<path class="st1" d="M166.47,190.43c0,0-50,20.43-86.89-16.77c0,0-26.52-30.18-14.63-70.12c0,0,8.54-37.5,50.91-61.89
	c0,0,25-14.94,69.2-10.97c0,0,17.68,2.13,37.19,8.84c0,0-30.49-37.19-93.9-32.32c0,0-45.12,2.44-78.04,32.01
	c0,0-32.01,30.76-36.58,62.18c0,0-9.45,30.5,4.88,62.81c0,0,14.33,30.23,32.92,40.12c0,0,23.44,15.37,46.78,13.84
	c0,0,24.26,0.61,46.21-12.19C144.52,205.98,165.86,194.7,166.47,190.43z"/>
</svg>
